<svg xmlns="http://www.w3.org/2000/svg" width="1302" height="300" fill="none"><path fill="#fff" d="M151.76 150c0 11.336-9.201 20.526-20.551 20.526-11.349 0-20.55-9.19-20.55-20.526s9.201-20.526 20.55-20.526c11.35 0 20.551 9.19 20.551 20.526zm56.12 32.369c0 11.336-9.201 20.526-20.551 20.526-11.35 0-20.551-9.19-20.551-20.526 0-11.337 9.201-20.527 20.551-20.527 11.35 0 20.551 9.19 20.551 20.527zM264 214.737c0 11.336-9.201 20.526-20.551 20.526-11.35 0-20.551-9.19-20.551-20.526 0-11.337 9.201-20.526 20.551-20.526 11.35 0 20.551 9.189 20.551 20.526zM96.431 117.632c0 11.336-9.2 20.526-20.55 20.526-11.35 0-20.552-9.19-20.552-20.526 0-11.337 9.201-20.526 20.551-20.526 11.35 0 20.551 9.189 20.551 20.526zM41.102 85.263c0 11.337-9.201 20.526-20.551 20.526C9.2 105.789 0 96.599 0 85.263s9.2-20.526 20.55-20.526c11.35 0 20.552 9.19 20.552 20.526zm55.329 97.106c0 11.336-9.2 20.526-20.55 20.526-11.35 0-20.552-9.19-20.552-20.526 0-11.337 9.201-20.527 20.551-20.527 11.35 0 20.551 9.19 20.551 20.527zm-55.329 32.368c0 11.336-9.201 20.526-20.551 20.526C9.2 235.263 0 226.073 0 214.737c0-11.337 9.2-20.526 20.55-20.526 11.35 0 20.552 9.189 20.552 20.526zm166.778-97.105c0 11.336-9.201 20.526-20.551 20.526-11.35 0-20.551-9.19-20.551-20.526 0-11.337 9.201-20.526 20.551-20.526 11.35 0 20.551 9.189 20.551 20.526zM264 85.263c0 11.337-9.201 20.526-20.551 20.526-11.35 0-20.551-9.19-20.551-20.526s9.201-20.526 20.551-20.526c11.35 0 20.551 9.19 20.551 20.526zM151.76 214.737c0 11.336-9.201 20.526-20.551 20.526-11.349 0-20.55-9.19-20.55-20.526 0-11.337 9.201-20.526 20.55-20.526 11.35 0 20.551 9.189 20.551 20.526zm0 64.737c0 11.336-9.201 20.526-20.551 20.526-11.349 0-20.55-9.19-20.55-20.526 0-11.337 9.201-20.527 20.55-20.527 11.35 0 20.551 9.19 20.551 20.527zm0-194.211c0 11.337-9.201 20.526-20.551 20.526-11.349 0-20.55-9.19-20.55-20.526s9.201-20.526 20.55-20.526c11.35 0 20.551 9.19 20.551 20.526zm0-64.737c0 11.337-9.201 20.527-20.551 20.527-11.349 0-20.55-9.19-20.55-20.527C110.659 9.19 119.86 0 131.209 0c11.35 0 20.551 9.19 20.551 20.526zM359 242.193V65.423h88.153c32.105 0 55.504 23.115 55.504 54.934 0 22.844-13.06 41.065-33.466 49.496l36.731 72.34h-47.886l-24.215-67.445h-34.554v67.445H359zm40.267-95.728h39.724c12.243 0 21.222-9.247 21.222-22.301 0-13.054-8.979-22.3-21.222-22.3h-39.724v44.601zm213.936 21.756c0-16.589-9.522-28.283-23.398-28.283-15.509 0-27.208 13.869-27.208 32.634v69.621h-38.091V106.215h29.385l8.162 21.213c6.53-14.414 23.943-24.476 41.9-24.476 28.024 0 47.341 24.748 47.341 58.742v80.499h-38.091v-73.972zm64.107 73.972V65.423h83.8c33.465 0 57.68 23.931 57.68 57.11 0 32.906-25.575 56.566-60.945 56.566h-40.268v63.094H677.31zm40.267-92.465h36.459c13.059 0 22.31-10.062 22.31-23.932s-9.251-23.932-22.31-23.932h-36.459v47.864zm151.348 42.969c.544 11.966 10.339 20.668 22.854 20.668 9.523 0 16.325-5.167 16.325-12.509 0-23.932-76.182-15.23-76.182-59.831 0-23.388 21.494-38.617 53.871-38.617 34.554 0 59.313 16.589 60.402 39.705l-42.444 8.703c0-10.878-7.075-16.861-19.046-16.861-9.523 0-14.692 4.351-14.692 10.334 0 23.932 78.358 14.142 78.358 58.742 0 25.02-25.031 42.969-59.857 42.969s-62.034-16.861-64.21-44.057l44.621-9.246zm162.675 52.759c-39.994 0-69.106-29.915-69.106-71.252 0-41.337 29.112-71.252 69.106-71.252 40 0 69.11 29.915 69.11 71.252 0 41.337-29.11 71.252-69.11 71.252zm-29.93-71.524c0 20.397 12.52 35.082 29.93 35.082s29.93-14.685 29.93-35.082-12.52-35.082-29.93-35.082-29.93 14.685-29.93 35.082zm108.74-56.839h20.68v-15.229c0-27.467 20.13-47.864 47.34-47.864 10.61 0 23.13 2.992 31.02 7.615l-10.88 33.722c-3.27-2.448-9.25-4.351-14.15-4.351-8.71 0-15.24 6.527-15.24 15.229v10.878h32.65v33.723h-32.65v91.377h-38.09v-91.377h-20.68v-33.723zm99.08 22.845v-33.723h8.71c7.62 0 13.06-5.983 13.06-14.141V68.142h35.91v38.073h30.48v33.723h-30.48v50.583c0 13.054 7.62 18.493 18.51 18.493 2.72 0 5.44-.272 9.79-1.632l6.53 34.811c-5.44 1.631-13.6 3.263-26.66 3.263-26.67 0-46.26-18.493-46.26-44.6v-60.918h-19.59z"/></svg>